<?xml version="1.0" encoding="utf-8"?>
<!-- Generator: Adobe Illustrator 22.0.1, SVG Export Plug-In . SVG Version: 6.00 Build 0)  -->
<svg version="1.1" id="Layer_1" xmlns="http://www.w3.org/2000/svg" xmlns:xlink="http://www.w3.org/1999/xlink" x="0px" y="0px"
	 viewBox="0 0 170.1 56.7" style="enable-background:new 0 0 170.1 56.7;" xml:space="preserve">
<style type="text/css">
	.st0{fill:#642165;}
	.st1{fill:#44005D;}
	.st2{opacity:0.3;fill:#FFFFFF;}
	.st3{fill:#FFFFFF;}
	.st4{fill:#2D257D;}
</style>
<g>
	<path class="st0" d="M17.1,50.5c-0.4-0.2-0.5-0.5-0.5-0.8V38.5h-5.5c-1.5,0-2.8-1.3-2.8-2.8V14.9c0-1.5,1.3-2.8,2.8-2.8h75.3
		c1,0,2.2,0.5,2.7,1.1c0.3,0.3,0.7,0.9,0.6,1.5l0,21c0,1.5-1.3,2.8-2.8,2.8H29.5L17.9,50.1l0,0.1c-0.1,0.2-0.4,0.3-0.6,0.3H17.1z"/>
	<path class="st1" d="M86.4,12.6c0.9,0,1.9,0.4,2.3,1l0,0l0,0c0.1,0.1,0.5,0.5,0.4,1.1l0,0.1v0.1v20.9c0,1.2-1.1,2.3-2.3,2.3H29.7
		h-0.4L29,38.3L17.6,49.7l-0.1,0.1l-0.1,0.1c0,0-0.1,0.1-0.1,0.1h-0.1c-0.1,0-0.1-0.1-0.1-0.3V39v-1h-1h-5c-1.2,0-2.3-1.1-2.3-2.3
		V14.9c0-1.2,1.1-2.3,2.3-2.3H86.4 M86.4,11.6H11.1c-1.8,0-3.3,1.5-3.3,3.3v20.8c0,1.8,1.5,3.3,3.3,3.3h5v10.7
		c0,0.6,0.3,1.1,0.9,1.3c0.1,0,0.1,0,0.3,0c0.3,0,0.8-0.2,1-0.6L29.7,39h57.2c1.8,0,3.3-1.5,3.3-3.3V14.8c0.1-0.8-0.3-1.5-0.7-1.9
		C88.8,12.1,87.5,11.6,86.4,11.6L86.4,11.6z"/>
</g>
<path class="st2" d="M86.4,11.6H11.1c-1.8,0-3.3,1.5-3.3,3.3v6.5c4.2-1.6,15.1-4.5,41.2-4.6c26.1-0.1,37,2.8,41.2,4.5v-6.5
	c0.1-0.8-0.3-1.5-0.7-1.9C88.8,12.1,87.5,11.6,86.4,11.6z"/>
<g>
	<path class="st3" d="M22.1,23c-0.6-0.4-1.2-0.4-1.5-0.4c-0.7,0-1.4,0.3-2.2,0.9v8.4H15v-12h2.9l0.4,1.2c1.1-1,2-1.5,3.3-1.5
		c0.6,0,1.3,0.2,1.8,0.6L22.1,23z"/>
</g>
<g>
	<path class="st3" d="M26.6,26.9c0.1,1.6,1.6,2.6,3.2,2.6c1.2,0,2.1-0.2,3.2-0.8l0.8,2.2c-1.5,1-3.2,1.4-4.6,1.4
		c-4.3,0-6.1-3.1-6.1-6.2c0-3.4,2-6.4,5.6-6.4c3.3,0,5.6,2.5,5.6,6.2c0,0.2,0,0.6,0,1C34.3,26.9,26.6,26.9,26.6,26.9z M28.6,22.1
		c-1.4,0-2.2,1.3-2.2,2.4h4.3C30.8,23.4,30.1,22.1,28.6,22.1z"/>
</g>
<g>
	<path class="st3" d="M41.8,32h-2.5l-5.1-12.1h3.5l2.8,7.7h0.1l2.8-7.7h3.3L41.8,32z"/>
</g>
<g>
	<path class="st3" d="M49.7,18.3c-1.2,0-2.1-0.9-2.1-2s0.9-2,2.1-2s2.1,0.9,2.1,2C51.8,17.3,50.9,18.3,49.7,18.3z M47.9,31.9v-12
		h3.5v12H47.9z"/>
</g>
<g>
	<path class="st3" d="M56.8,26.9c0.1,1.6,1.6,2.6,3.2,2.6c1.2,0,2.1-0.2,3.2-0.8l0.8,2.2c-1.5,1-3.2,1.4-4.6,1.4
		c-4.3,0-6.1-3.1-6.1-6.2c0-3.4,2-6.4,5.6-6.4c3.3,0,5.6,2.5,5.6,6.2c0,0.2,0,0.6,0,1C64.5,26.9,56.8,26.9,56.8,26.9z M58.9,22.1
		c-1.4,0-2.2,1.3-2.2,2.4h4.4C61,23.4,60.3,22.1,58.9,22.1z"/>
</g>
<g>
	<path class="st3" d="M79.3,32h-2.5l-2.6-7.7h-0.1L71.5,32H69l-4.5-12.1H68l2.4,7.7h0.1l2.5-7.7h2.5l2.6,7.7h0.1l2.4-7.7h3.3
		L79.3,32z"/>
</g>
<g>
	<g>
		<g>
			<g>
				<path class="st4" d="M111.2,19.6c-3.6,0-5.6,3-5.6,6.4c0,3.2,1.8,6.2,6.1,6.2c1.4,0,3.1-0.4,4.6-1.4l-0.8-2.2
					c-1.2,0.6-2.1,0.8-3.2,0.8c-1.6,0-3.1-1-3.2-2.6h7.8v-1C116.8,22.1,114.5,19.6,111.2,19.6z M108.9,24.5c0-1.1,0.8-2.4,2.2-2.4
					c1.5,0,2.1,1.2,2.2,2.4H108.9z M125.8,19.6c-1.6,0-3,0.6-4.2,1.6l-0.4-1.3h-2.9v12h3.5v-8.3c0.9-0.6,1.9-1,2.8-1
					c1.4,0,1.7,1.3,1.7,2.4v7h3.4v-8C129.7,20.7,127.7,19.6,125.8,19.6z M137.5,29.3c-0.8,0-1.1-0.4-1.1-1.3v-5.5h2.8l1-2.5h-3.8
					v-3.8l-3.4,1V20h-2.2v2.5h2.2v6.8c0,1.6,0.8,2.9,3.1,2.9c1.2,0,3-0.4,4.3-1.3l-0.9-2.1C139,29,138.2,29.3,137.5,29.3z
					 M147.8,19.6c-1.3,0-2.2,0.6-3.3,1.5l-0.4-1.2h-2.9v12h3.4v-8.4c0.8-0.7,1.5-0.9,2.2-0.9c0.3,0,0.9,0.1,1.5,0.4l1.2-2.8
					C149.1,19.8,148.4,19.6,147.8,19.6z M160.6,25.8c0-3.7-2.3-6.2-5.6-6.2c-3.6,0-5.6,3-5.6,6.4c0,3.2,1.8,6.2,6.1,6.2
					c1.4,0,3.1-0.4,4.6-1.4l-0.8-2.2c-1.2,0.6-2.1,0.8-3.2,0.8c-1.6,0-3.1-1-3.2-2.6h7.8L160.6,25.8L160.6,25.8z M152.7,24.5
					c0-1.1,0.8-2.4,2.2-2.4c1.5,0,2.1,1.2,2.2,2.4H152.7z M101.4,29.4c-2.4,0-3.4-1.8-3.4-3.6c0-2.1,1.5-3.6,3.4-3.6
					c1.2,0,2.1,0.3,3,1l0.1-2.7c-0.6-0.4-1.7-0.9-3.5-0.9c-3.4,0-6.3,2.5-6.3,6.3c0,3.4,2,6.2,6,6.2c1.7,0,3.4-0.6,4.4-1.3l-0.8-2.2
					C103.4,29.1,102.5,29.4,101.4,29.4z"/>
			</g>
		</g>
	</g>
</g>
</svg>
