<?xml version="1.0" encoding="utf-8"?>
<!-- Generator: Adobe Illustrator 22.0.1, SVG Export Plug-In . SVG Version: 6.00 Build 0)  -->
<svg version="1.1" xmlns="http://www.w3.org/2000/svg" xmlns:xlink="http://www.w3.org/1999/xlink" x="0px" y="0px"
	 viewBox="0 0 170.1 51" enable-background="new 0 0 170.1 51" xml:space="preserve">
<g id="Layer_1">
	<g>
		<g>
			<path fill="#231F20" d="M40.1,17.1c0,0.2,0,0.3,0,0.5c0,0.1-0.1,0.2-0.1,0.3s-0.1,0.1-0.2,0.2c-0.1,0-0.1,0.1-0.2,0.1h-5.3v16.4
				c0,0.1,0,0.1-0.1,0.2c0,0.1-0.1,0.1-0.2,0.1c-0.1,0-0.2,0.1-0.4,0.1c-0.2,0-0.4,0-0.6,0c-0.2,0-0.4,0-0.6,0s-0.3-0.1-0.4-0.1
				s-0.2-0.1-0.2-0.1c0-0.1-0.1-0.1-0.1-0.2V18.1h-5.3c-0.1,0-0.1,0-0.2-0.1c-0.1,0-0.1-0.1-0.2-0.2c0-0.1-0.1-0.2-0.1-0.3
				s0-0.3,0-0.5s0-0.3,0-0.5c0-0.1,0.1-0.3,0.1-0.3c0-0.1,0.1-0.1,0.2-0.2c0.1,0,0.1-0.1,0.2-0.1h13.1c0.1,0,0.1,0,0.2,0.1
				c0.1,0,0.1,0.1,0.2,0.2c0,0.1,0.1,0.2,0.1,0.3C40.1,16.7,40.1,16.9,40.1,17.1z"/>
			<path fill="#231F20" d="M56.2,34.5c0,0.1,0,0.1,0,0.2s-0.1,0.1-0.2,0.1c-0.1,0-0.2,0.1-0.4,0.1c-0.2,0-0.4,0-0.7,0s-0.5,0-0.6,0
				c-0.2,0-0.3-0.1-0.4-0.1c-0.1,0-0.2-0.1-0.2-0.2c-0.1-0.1-0.1-0.2-0.1-0.3l-1.9-4.4c-0.2-0.5-0.4-1-0.6-1.4
				c-0.2-0.4-0.5-0.8-0.8-1.1c-0.3-0.3-0.6-0.5-1-0.7c-0.4-0.2-0.9-0.3-1.5-0.3h-1.7v8c0,0.1,0,0.1-0.1,0.2c0,0.1-0.1,0.1-0.2,0.1
				c-0.1,0-0.2,0.1-0.4,0.1s-0.4,0-0.6,0c-0.2,0-0.4,0-0.6,0s-0.3-0.1-0.4-0.1c-0.1,0-0.2-0.1-0.2-0.1c0-0.1-0.1-0.1-0.1-0.2V17
				c0-0.4,0.1-0.6,0.3-0.8c0.2-0.1,0.4-0.2,0.6-0.2h4c0.6,0,1,0,1.3,0s0.6,0.1,0.9,0.1c0.7,0.1,1.4,0.3,1.9,0.6c0.6,0.3,1,0.6,1.4,1
				c0.4,0.4,0.7,0.9,0.9,1.4c0.2,0.6,0.3,1.2,0.3,1.9c0,0.6-0.1,1.2-0.3,1.7c-0.2,0.5-0.4,0.9-0.7,1.3c-0.4,0.4-0.7,0.7-1.2,1
				c-0.4,0.3-0.9,0.5-1.5,0.7c0.3,0.1,0.6,0.3,0.9,0.5c0.2,0.2,0.4,0.5,0.7,0.8c0.2,0.3,0.4,0.6,0.6,1c0.2,0.4,0.4,0.8,0.6,1.3
				l1.7,4.2c0.1,0.3,0.2,0.6,0.3,0.7C56.2,34.3,56.2,34.4,56.2,34.5z M52.4,21.2c0-0.7-0.2-1.4-0.5-1.9c-0.3-0.5-0.9-0.9-1.7-1.1
				c-0.2,0-0.5-0.1-0.8-0.1c-0.3,0-0.7,0-1.2,0h-2.1v6.4h2.5c0.7,0,1.2-0.1,1.7-0.2c0.5-0.3,0.9-0.5,1.2-0.8c0.3-0.3,0.6-0.6,0.7-1
				S52.4,21.7,52.4,21.2z"/>
			<path fill="#231F20" d="M73,27.8c0,1.1-0.2,2.1-0.5,3c-0.3,0.9-0.8,1.6-1.4,2.2s-1.4,1.1-2.2,1.4c-0.9,0.3-1.9,0.5-3,0.5
				c-1,0-2-0.1-2.8-0.4c-0.8-0.3-1.6-0.7-2.2-1.3c-0.6-0.6-1.1-1.3-1.4-2.2c-0.3-0.9-0.5-1.9-0.5-3V16.5c0-0.1,0-0.1,0.1-0.2
				c0-0.1,0.1-0.1,0.2-0.1c0.1,0,0.2-0.1,0.4-0.1s0.4,0,0.6,0c0.2-0.1,0.4-0.1,0.5-0.1c0.2,0,0.3,0.1,0.4,0.1s0.2,0.1,0.2,0.1
				c0,0.1,0.1,0.1,0.1,0.2v11.2c0,0.9,0.1,1.6,0.3,2.3c0.2,0.6,0.5,1.2,0.9,1.6c0.4,0.4,0.9,0.7,1.4,1c0.6,0.2,1.2,0.3,1.9,0.3
				s1.4-0.1,1.9-0.3c0.6-0.2,1-0.5,1.4-0.9c0.4-0.4,0.7-0.9,0.9-1.6c0.2-0.6,0.3-1.3,0.3-2.2V16.5c0-0.1,0-0.1,0.1-0.2
				c0-0.1,0.1-0.1,0.2-0.1c0.1,0,0.2-0.1,0.4-0.1c0.2,0,0.4,0,0.6,0c0.2,0,0.4,0,0.6,0c0.2,0,0.3,0.1,0.4,0.1c0.1,0,0.2,0.1,0.2,0.1
				c0,0.1,0.1,0.1,0.1,0.2v11.3H73z"/>
			<path fill="#231F20" d="M87.1,29.5c0,0.9-0.2,1.6-0.5,2.3c-0.3,0.7-0.8,1.2-1.3,1.7c-0.6,0.5-1.2,0.8-2,1.1
				c-0.8,0.2-1.6,0.4-2.5,0.4c-0.6,0-1.2-0.1-1.7-0.2s-1-0.2-1.4-0.4c-0.4-0.2-0.8-0.3-1-0.5c-0.3-0.2-0.5-0.3-0.6-0.4
				s-0.2-0.3-0.2-0.4c-0.1-0.2-0.1-0.4-0.1-0.7c0-0.2,0-0.4,0-0.5c0-0.1,0-0.2,0.1-0.3c0-0.1,0.1-0.1,0.1-0.2c0.1,0,0.1-0.1,0.2-0.1
				c0.1,0,0.3,0.1,0.6,0.2c0.2,0.2,0.6,0.3,0.9,0.5c0.4,0.2,0.8,0.4,1.4,0.5c0.5,0.2,1.2,0.3,1.9,0.3c0.5,0,1-0.1,1.5-0.2
				c0.4-0.1,0.8-0.3,1.1-0.6c0.3-0.3,0.6-0.6,0.7-1c0.2-0.4,0.3-0.8,0.3-1.3s-0.1-1-0.4-1.3c-0.2-0.4-0.6-0.7-0.9-1
				c-0.4-0.3-0.8-0.5-1.3-0.8c-0.5-0.2-1-0.5-1.5-0.7s-1-0.5-1.5-0.8c-0.5-0.3-0.9-0.6-1.3-1c-0.4-0.4-0.7-0.9-0.9-1.4
				s-0.4-1.2-0.4-1.9c0-0.8,0.1-1.5,0.4-2.1s0.7-1.1,1.2-1.5s1.1-0.7,1.8-0.9c0.5-0.2,1.3-0.3,2.1-0.3c0.4,0,0.8,0,1.2,0.1
				c0.4,0.1,0.8,0.2,1.2,0.3s0.7,0.3,1,0.4c0.3,0.1,0.5,0.3,0.6,0.4c0.1,0.1,0.2,0.2,0.2,0.2c0,0.1,0.1,0.1,0.1,0.2s0,0.2,0,0.3
				s0,0.3,0,0.4c0,0.2,0,0.3,0,0.5c0,0.1,0,0.2-0.1,0.3c0,0.1-0.1,0.2-0.1,0.2c-0.1,0-0.1,0.1-0.2,0.1s-0.3-0.1-0.5-0.2
				c-0.3-0.2-0.6-0.3-0.9-0.5c-0.3-0.2-0.7-0.3-1.1-0.5c-0.5-0.1-1-0.2-1.5-0.2s-1,0.1-1.3,0.2c-0.4,0.1-0.7,0.3-0.9,0.5
				c-0.2,0.2-0.4,0.5-0.6,0.8c-0.1,0.3-0.2,0.6-0.2,1c0,0.5,0.1,1,0.4,1.3c0.2,0.4,0.6,0.7,0.9,1c0.4,0.3,0.8,0.5,1.3,0.8
				c0.5,0.2,1,0.5,1.5,0.7c0.5,0.2,1,0.5,1.5,0.8s1,0.6,1.3,1c0.4,0.4,0.7,0.9,0.9,1.4C87,28.2,87.1,28.8,87.1,29.5z"/>
			<path fill="#231F20" d="M102.7,17.1c0,0.2,0,0.3,0,0.5c0,0.1-0.1,0.2-0.1,0.3s-0.1,0.1-0.2,0.2c-0.1,0-0.1,0.1-0.2,0.1h-5.3v16.3
				c0,0.1,0,0.1-0.1,0.2c0,0.1-0.1,0.1-0.2,0.1c-0.1,0-0.2,0.1-0.4,0.1c-0.2,0-0.4,0-0.6,0c-0.2,0-0.4,0-0.6,0s-0.3-0.1-0.4-0.1
				c-0.1,0-0.2-0.1-0.2-0.1c0-0.1-0.1-0.1-0.1-0.2V18.1H89c-0.1,0-0.2,0-0.2-0.1c-0.1,0-0.1-0.1-0.2-0.2c0.1,0,0.1-0.1,0.1-0.2
				s0-0.3,0-0.5c0-0.2,0-0.3,0-0.5c0-0.1,0.1-0.3,0.1-0.3c0-0.1,0.1-0.1,0.2-0.2c0-0.1,0.1-0.1,0.1-0.1h13.1c0.1,0,0.2,0,0.2,0.1
				c0.1,0,0.1,0.1,0.2,0.2c0.1,0,0.1,0.1,0.1,0.3C102.7,16.7,102.7,16.9,102.7,17.1z"/>
			<path fill="#929497" d="M117.3,21.5c0,0.9-0.2,1.8-0.5,2.6c-0.3,0.8-0.8,1.4-1.3,1.9c-0.6,0.5-1.3,1-2.1,1.2
				c-0.8,0.3-1.8,0.4-3,0.4h-2.1v6.8c0,0.1,0,0.1-0.1,0.2c0,0.1-0.1,0.1-0.2,0.1c-0.1,0-0.2,0.1-0.4,0.1c-0.2,0-0.4,0-0.6,0
				s-0.4,0-0.6,0c-0.2,0-0.3-0.1-0.4-0.1c-0.1,0-0.2-0.1-0.2-0.1c0-0.1-0.1-0.1-0.1-0.2V17.1c0-0.4,0.1-0.7,0.3-0.8
				c0.2-0.2,0.4-0.3,0.7-0.3h4c0.4,0,0.8,0,1.2,0.1c0.4,0,0.8,0.1,1.3,0.2c0.5,0.1,1,0.3,1.6,0.6c0.5,0.3,1,0.7,1.3,1.1
				c0.4,0.4,0.7,1,0.9,1.6S117.3,20.8,117.3,21.5z M114.7,21.7c0-0.8-0.1-1.4-0.4-1.9s-0.6-0.9-1.1-1.2c-0.4-0.3-0.9-0.4-1.3-0.5
				c-0.5-0.1-0.9-0.1-1.3-0.1h-2.3v7.6h2.3c0.8,0,1.4-0.1,1.9-0.3s0.9-0.5,1.3-0.8c0.3-0.3,0.6-0.8,0.8-1.2
				C114.6,22.8,114.7,22.3,114.7,21.7z"/>
			<path fill="#929497" d="M123.2,34.5c0,0.1,0,0.1-0.1,0.2c0,0.1-0.1,0.1-0.2,0.1c-0.1,0-0.2,0.1-0.4,0.1c-0.2,0-0.4,0-0.6,0
				s-0.4,0-0.6,0s-0.3-0.1-0.4-0.1c-0.1,0-0.2-0.1-0.2-0.1c0-0.1-0.1-0.1-0.1-0.2v-18c0-0.1,0-0.1,0.1-0.2c0-0.1,0.1-0.1,0.2-0.1
				c0.1,0,0.2-0.1,0.4-0.1s0.4,0,0.6,0s0.4,0,0.6,0s0.3,0.1,0.4,0.1c0.1,0,0.2,0.1,0.2,0.1c0,0.1,0.1,0.1,0.1,0.2V34.5z"/>
			<path fill="#929497" d="M137.7,33.9c0,0.2,0,0.4,0,0.5c0,0.1-0.1,0.2-0.1,0.3c0,0.1-0.1,0.2-0.2,0.2c-0.1,0-0.1,0.1-0.2,0.1h-8.3
				c-0.2,0-0.4-0.1-0.6-0.2c-0.2-0.2-0.3-0.4-0.3-0.8V16.5c0-0.1,0-0.1,0.1-0.2c0-0.1,0.1-0.1,0.2-0.1c0.1,0,0.2-0.1,0.4-0.1
				s0.4,0,0.6,0s0.4,0,0.6,0s0.3,0.1,0.4,0.1c0.1,0,0.2,0.1,0.2,0.1c0,0.1,0.1,0.1,0.1,0.2v16.3h6.8c0.1,0,0.2,0,0.2,0.1
				c0.1,0,0.1,0.1,0.2,0.2c0,0.1,0.1,0.2,0.1,0.3C137.7,33.5,137.7,33.7,137.7,33.9z"/>
			<path fill="#929497" d="M154.8,25.2c0,1.5-0.2,2.8-0.5,4c-0.4,1.2-0.9,2.2-1.6,3c-0.7,0.8-1.6,1.5-2.6,1.9
				c-1,0.5-2.3,0.7-3.7,0.7c-1.4,0-2.6-0.2-3.6-0.6s-1.8-1-2.5-1.8c-0.7-0.8-1.1-1.8-1.5-2.9c-0.3-1.2-0.5-2.5-0.5-4
				c0-1.4,0.2-2.8,0.5-4c0.4-1.2,0.9-2.2,1.6-3s1.6-1.5,2.6-1.9c1.1-0.4,2.3-0.6,3.7-0.6c1.4,0,2.5,0.2,3.5,0.6s1.8,1,2.5,1.8
				c0.7,0.8,1.2,1.7,1.5,2.9C154.6,22.4,154.8,23.8,154.8,25.2z M152.2,25.4c0-1-0.1-2-0.3-2.9c-0.2-0.9-0.5-1.7-0.9-2.3
				c-0.4-0.7-1-1.2-1.7-1.5c-0.7-0.4-1.6-0.6-2.7-0.6c-1.1,0-1.9,0.2-2.7,0.6c-0.7,0.4-1.3,0.9-1.8,1.6c-0.4,0.7-0.8,1.4-1,2.3
				c-0.2,0.9-0.3,1.8-0.3,2.8c0,1.1,0.1,2.1,0.3,3c0.2,0.9,0.5,1.7,0.9,2.3c0.4,0.7,1,1.2,1.7,1.5c0.7,0.4,1.6,0.5,2.7,0.5
				c1.1,0,2-0.2,2.7-0.6c0.7-0.4,1.3-0.9,1.8-1.6c0.4-0.7,0.8-1.5,0.9-2.3C152.1,27.3,152.2,26.4,152.2,25.4z"/>
			<path fill="#929497" d="M169.4,17.1c0,0.2,0,0.3,0,0.5c0,0.1,0,0.2-0.1,0.3c0,0.1-0.1,0.1-0.2,0.2c-0.1,0-0.1,0.1-0.2,0.1h-5.3
				v16.4c0,0.1,0,0.1-0.1,0.2c0,0.1-0.1,0.1-0.2,0.1c-0.1,0-0.2,0.1-0.4,0.1s-0.4,0-0.6,0s-0.4,0-0.6,0s-0.3-0.1-0.4-0.1
				c-0.1,0-0.2-0.1-0.2-0.1c0-0.1-0.1-0.1-0.1-0.2V18.1h-5.3c-0.1,0-0.1,0-0.2-0.1c-0.1,0-0.1-0.1-0.2-0.2c0-0.1-0.1-0.2-0.1-0.3
				s0-0.3,0-0.5s0-0.3,0-0.5c0-0.1,0.1-0.3,0.1-0.3c0-0.1,0.1-0.1,0.2-0.2c0.1,0,0.2,0,0.3,0h13.1c0.1,0,0.1,0,0.2,0.1
				c0.1,0,0.1,0.1,0.2,0.2c0,0.1,0.1,0.2,0.1,0.3S169.4,16.9,169.4,17.1z"/>
		</g>
	</g>
</g>
<g id="Layer_5">
	<g id="Layer_2">
		
			<linearGradient id="SVGID_1_" gradientUnits="userSpaceOnUse" x1="10.65" y1="17.0443" x2="10.65" y2="35.8777" gradientTransform="matrix(1 0 0 -1 0 52)">
			<stop  offset="0" style="stop-color:#E37A27"/>
			<stop  offset="0.4725" style="stop-color:#F9A220"/>
		</linearGradient>
		<rect x="1.2" y="16.1" fill="url(#SVGID_1_)" width="18.9" height="18.8"/>
	</g>
</g>
<g id="Layer_4">
	
		<linearGradient id="SVGID_2_" gradientUnits="userSpaceOnUse" x1="5184.6909" y1="5674.9976" x2="5184.6909" y2="5608.8892" gradientTransform="matrix(0.1098 0 0 0.1098 -558.6791 -599.733)">
		<stop  offset="0" style="stop-color:#FFFFFF"/>
		<stop  offset="1" style="stop-color:#F9A220"/>
	</linearGradient>
	<path opacity="0.5" fill="url(#SVGID_2_)" enable-background="new    " d="M1.3,16.1h18.6c0,0-3.1,1.1-6.3,7.1
		c0,0-7.2,0.7-12.2-1.5L1.3,16.1z"/>
</g>
<g id="Layer_3">
	<g>
		
			<linearGradient id="SVGID_3_" gradientUnits="userSpaceOnUse" x1="5185.6021" y1="5608.4277" x2="5185.6021" y2="5779.7026" gradientTransform="matrix(0.1098 0 0 0.1098 -558.6791 -599.733)">
			<stop  offset="0" style="stop-color:#4A484A"/>
			<stop  offset="1" style="stop-color:#000000"/>
		</linearGradient>
		<path fill="url(#SVGID_3_)" d="M10.8,32.8c-3.2-5.4-9.5-8.4-9.5-8.4v6.9C6.5,31.5,9.7,35,9.7,35H12c0,0,3.5-9.6,8.1-10.8V16l0,0
			C12.2,20.9,10.8,32.8,10.8,32.8z"/>
	</g>
</g>
</svg>
